<svg width="326" height="9" viewBox="0 0 326 9" fill="none" xmlns="http://www.w3.org/2000/svg">
<path d="M265.028 0.994693C266.476 2.05654 267.454 2.76861 268.693 3.67373C272.354 1.73575 275.751 -0.325864 280.124 3.7399C281.043 4.60069 286.862 3.27143 290.135 2.98802C292.989 3.57144 296.079 4.59018 299.231 4.76599C307.956 5.24831 316.71 5.36123 325.46 5.62443C325.478 6.21511 325.495 6.81732 325.513 7.40799C321.623 7.48766 317.747 7.6719 313.842 7.62387C275.276 7.15801 236.686 6.33271 198.126 6.26045C157.623 6.17601 117.137 6.6938 76.6526 7.16535C54.5636 7.42656 32.4962 8.15129 10.4197 8.58646C8.33167 8.62779 5.92919 8.45134 4.18344 7.78555C2.6138 7.19448 0.765888 5.77347 0.795797 4.77924C0.822228 3.90062 3.18477 2.44429 4.68513 2.37371C20.9215 1.60087 37.1599 0.758676 53.4511 0.531333C70.3846 0.300168 87.3513 0.741148 104.31 0.846318C120.039 0.949182 135.784 1.0757 151.499 1.02773C164.289 0.995903 177.056 0.512098 189.841 0.630558C194.798 0.675537 199.732 2.09679 204.735 2.38616C207.192 2.5295 211.572 4.57053 212.204 0.747887C212.227 0.598133 213.501 0.335592 213.871 0.485579C218.402 2.25342 223.323 -0.0631778 227.446 1.00971C232.03 2.21215 235.928 1.86659 240.281 1.26852C241.714 1.06863 243.502 2.10593 245.123 2.15471C247.083 2.21368 249.026 1.682 251.007 1.63745C252.685 1.59536 254.864 1.47578 255.97 2.07603C259.586 4.00151 262.238 3.59532 264.992 0.993619L265.028 0.994693Z" fill="#63BE98"/>
</svg>
